#!OML:ASF H:\Martial Arts Walks\Project 1\Capture day 1\Session 1\male.ASF
:FULLY-SPECIFIED
:DEGREES
1203
root -4.11473 13.7411 42.0325 6.82716 19.2878 10.077
lowerback 11.8158 0.538433 -14.7086
upperback -0.609067 -1.42564 -1.03761
thorax -7.03849 -0.162521 7.42084
lowerneck 2.14591 -10.0206 -9.5716
upperneck 3.38293 -13.8358 9.96174
head 2.01901 -6.94121 4.18999
rclavicle 9.05713e-015 -4.30369e-014
rhumerus -25.6986 13.9738 -63.6482
rradius 57.2526
rwrist 7.5071
rhand -8.20222 -46.7784
rfingers 7.12502
rthumb 17.7143 -75.9915
lclavicle 9.05713e-015 -4.30369e-014
lhumerus -23.6332 -13.166 84.2078
lradius 36.2306
lwrist -16.0363
lhand -20.0634 21.1778
lfingers 7.12502
lthumb 6.27865 51.0647
rfemur -62.5279 -23.3834 6.82317
rtibia 71.997
rfoot -9.35595 9.73583
rtoes 1.00075
lfemur 16.4946 3.29508 -14.2313
ltibia 26.6045
lfoot -26.9395 29.2883
ltoes -22.3109
1204
root -4.10612 13.7466 42.0457 6.82508 19.3127 10.0682
lowerback 11.7737 0.476127 -14.701
upperback -0.699105 -1.5102 -1.0608
thorax -7.09508 -0.195652 7.40493
lowerneck 2.68369 -9.90723 -9.72334
upperneck 3.17104 -13.7252 10.2327
head 1.88773 -6.90185 4.33418
rclavicle -5.71506e-016 5.27773e-014
rhumerus -25.8343 14.3807 -63.8898
rradius 57.268
rwrist 7.22925
rhand -8.16517 -46.8072
rfingers 7.12502
rthumb 17.7499 -76.0171
lclavicle -5.71506e-016 5.27773e-014
lhumerus -23.7902 -12.9484 84.1592
lradius 36.2544
lwrist -15.816
lhand -20.2509 21.9517
lfingers 7.12502
lthumb 6.09757 51.8439
rfemur -62.5588 -23.4226 6.82055
rtibia 72.0516
rfoot -9.355 9.74506
rtoes 1.04603
lfemur 16.6101 3.37293 -14.1697
ltibia 26.4797
lfoot -26.7681 29.2311
ltoes -22.7516
1205
root -4.09629 13.7365 42.0567 6.81989 19.3509 10.2142
lowerback 11.7874 0.499134 -14.7518
upperback -0.607721 -1.48327 -1.11069
thorax -7.00841 -0.192501 7.37342
lowerneck 2.47231 -9.95399 -9.86675
upperneck 3.17022 -13.7828 10.4121
head 1.94989 -6.92505 4.3925
rclavicle 9.50439e-015 1.80894e-014
rhumerus -25.7261 14.4686 -63.916
rradius 57.236
rwrist 7.05561
rhand -7.84329 -46.881
rfingers 7.12502
rthumb 18.0596 -76.0626
lclavicle 9.50439e-015 1.80894e-014
lhumerus -23.4932 -12.9038 84.1996
lradius 36.2011
lwrist -15.5494
lhand -20.4681 22.5304
lfingers 7.12502
lthumb 5.8879 52.4286
rfemur -62.4135 -23.5359 6.57117
rtibia 72.1609
rfoot -9.54431 9.78415
rtoes 0.753512
lfemur 16.7681 3.39023 -14.2844
ltibia 26.3698
lfoot -26.8333 29.13
ltoes -22.6875
1206
root -4.08906 13.7348 42.0673 6.78501 19.3082 10.1807
lowerback 11.7934 0.529899 -14.6946
upperback -0.601955 -1.43587 -1.12304
thorax -7.0178 -0.171488 7.32
lowerneck 2.35612 -10.0705 -9.77536
upperneck 3.2559 -13.9211 10.1116
head 1.9806 -6.99146 4.27441
rclavicle 1.71949e-014 4.73108e-014
rhumerus -25.7554 14.6967 -64.0186
rradius 57.1815
rwrist 6.87231
rhand -7.56249 -46.9744
rfingers 7.12502
rthumb 18.3298 -76.1307
lclavicle 1.71949e-014 4.73108e-014
lhumerus -23.3833 -12.7912 84.222
lradius 36.1763
lwrist -15.3524
lhand -20.7233 22.9444
lfingers 7.12502
lthumb 5.64155 52.8493
rfemur -62.3831 -23.4593 6.54757
rtibia 72.227
rfoot -9.66323 9.74013
rtoes 0.665592
lfemur 16.9028 3.47929 -14.2337
ltibia 26.2742
lfoot -26.9089 29.0815
ltoes -22.7527
1207
root -4.08257 13.7326 42.0735 6.79264 19.2927 10.1711
lowerback 11.814 0.538092 -14.6684
upperback -0.59579 -1.42503 -1.13282
thorax -7.02592 -0.167091 7.29317
lowerneck 2.08331 -10.1972 -9.68789
upperneck 3.44223 -14.0689 9.84948
head 2.06982 -7.05775 4.15579
rclavicle -7.11028e-014 3.67752e-015
rhumerus -25.7614 14.8714 -64.1178
rradius 57.1473
rwrist 6.77426
rhand -7.13702 -46.9092
rfingers 7.12502
rthumb 18.739 -76.0266
lclavicle -7.11028e-014 3.67752e-015
lhumerus -23.2504 -12.6575 84.23
lradius 36.193
lwrist -15.2517
lhand -20.8184 23.5099
lfingers 7.12502
lthumb 5.54966 53.4172
rfemur -62.3937 -23.4049 6.51719
rtibia 72.3079
rfoot -9.67544 9.67505
rtoes 0.570615
lfemur 16.915 3.53307 -14.2184
ltibia 26.2665
lfoot -26.8482 29.1394
ltoes -22.9107
1208
root -4.08052 13.7291 42.0879 6.70208 19.1756 9.91617
lowerback 11.6961 0.56173 -14.5415
upperback -0.587272 -1.35057 -1.07399
thorax -6.96669 -0.139555 7.27169
lowerneck 2.03375 -9.85736 -10.4279
upperneck 3.56466 -13.6697 10.7559
head 2.188 -6.85724 4.54667
rclavicle 4.80562e-014 -3.0911e-014
rhumerus -25.7996 15.156 -64.2679
rradius 57.0713
rwrist 6.68679
rhand -6.74341 -46.9585
rfingers 7.12502
rthumb 19.1176 -76.0389
lclavicle 4.80562e-014 -3.0911e-014
lhumerus -23.2225 -12.5427 84.2235
lradius 36.2271
lwrist -15.1532
lhand -21.1148 23.7398
lfingers 7.12502
lthumb 5.26354 53.6544
rfemur -62.3923 -23.1116 6.74587
rtibia 72.3683
rfoot -9.71414 9.47748
rtoes 0.541671
lfemur 17.0099 3.69794 -13.9225
ltibia 26.2246
lfoot -26.9317 29.1076
ltoes -22.8045
1209
root -4.07119 13.7222 42.0905 6.74571 19.2192 10.0744
lowerback 11.7764 0.518048 -14.6286
upperback -0.667781 -1.44754 -1.14558
thorax -7.07997 -0.172317 7.26038
lowerneck 2.60911 -10.0553 -9.91126
upperneck 3.0893 -13.9174 10.2216
head 1.90727 -6.99848 4.34587
rclavicle -1.79403e-014 2.1419e-014
rhumerus -25.976 15.4983 -64.5183
rradius 57.0257
rwrist 6.72103
rhand -6.34924 -46.7822
rfingers 7.12502
rthumb 19.4966 -75.8247
lclavicle -1.79403e-014 2.1419e-014
lhumerus -23.2949 -12.3413 84.1901
lradius 36.2084
lwrist -15.1705
lhand -21.3351 23.3569
lfingers 7.12502
lthumb 5.05075 53.2767
rfemur -62.4014 -23.2161 6.53371
rtibia 72.4843
rfoot -9.78294 9.47229
rtoes 0.333336
lfemur 17.0482 3.65387 -14.1098
ltibia 26.2165
lfoot -26.9588 29.1454
ltoes -22.8717
1210
root -4.06177 13.719 42.0943 6.76892 19.2797 10.1748
lowerback 11.8431 0.537725 -14.6181
upperback -0.629203 -1.43043 -1.18477
thorax -7.0804 -0.166925 7.20974
lowerneck 2.42675 -9.88862 -10.3833
upperneck 3.14926 -13.7119 10.6788
head 1.99762 -6.89269 4.54816
rclavicle -1.63376e-014 -2.83268e-014
rhumerus -25.9499 15.5985 -64.565
rradius 56.8481
rwrist 6.72435
rhand -6.17741 -46.4882
rfingers 7.12502
rthumb 19.6618 -75.5139
lclavicle -1.63376e-014 -2.83268e-014
lhumerus -23.1058 -12.3326 84.2607
lradius 36.205
lwrist -15.1941
lhand -21.4376 23.2742
lfingers 7.12502
lthumb 4.9518 53.1963
rfemur -62.3997 -23.3026 6.38435
rtibia 72.5897
rfoot -9.8243 9.42778
rtoes 0.238676
lfemur 17.1115 3.62161 -14.2239
ltibia 26.1754
lfoot -27.1702 29.0854
ltoes -22.7205
1211
root -4.05345 13.7143 42.0993 6.77632 19.3542 10.2278
lowerback 11.7852 0.515556 -14.6221
upperback -0.587287 -1.44738 -1.21023
thorax -6.99743 -0.183605 7.18509
lowerneck 2.1494 -9.89423 -10.5773
upperneck 3.40037 -13.7211 10.7764
head 2.13785 -6.88908 4.58236
rclavicle -1.72694e-014 -1.11319e-014
rhumerus -25.9334 15.7939 -64.6687
rradius 56.614
rwrist 7.07494
rhand -5.8518 -46.1122
rfingers 7.12502
rthumb 19.9748 -75.1056
lclavicle -1.72694e-014 -1.11319e-014
lhumerus -23.0092 -12.2719 84.284
lradius 36.2159
lwrist -15.247
lhand -21.6644 23.0258
lfingers 7.12502
lthumb 4.73288 52.9529
rfemur -62.3378 -23.3734 6.26728
rtibia 72.6951
rfoot -9.84913 9.34901
rtoes 0.088633
lfemur 17.1982 3.57827 -14.2648
ltibia 26.071
lfoot -27.1579 29.0545
ltoes -22.8013
1212
root -4.04715 13.7083 42.1065 6.9023 19.3843 10.4355
lowerback 11.6097 0.4709 -14.8635
upperback -0.626665 -1.51588 -1.26028
thorax -6.92278 -0.212395 7.27226
lowerneck 2.32451 -9.87517 -10.5707
upperneck 3.39276 -13.7064 10.711
head 2.10058 -6.88739 4.57311
rclavicle 1.02747e-014 4.57205e-015
rhumerus -26.0247 16.1016 -64.8162
rradius 56.421
rwrist 7.31282
rhand -5.32163 -45.8792
rfingers 7.12502
rthumb 20.4844 -74.8186
lclavicle 1.02747e-014 4.57205e-015
lhumerus -23.1457 -12.1506 84.3085
lradius 36.3529
lwrist -15.3417
lhand -21.6084 23.2682
lfingers 7.12502
lthumb 4.78689 53.1942
rfemur -62.3991 -23.4337 6.01379
rtibia 72.8351
rfoot -10.0084 9.29569
rtoes 0.270167
lfemur 17.227 3.53345 -14.487
ltibia 25.9297
lfoot -27.03 29.0876
ltoes -22.9176
1213
root -4.04038 13.7111 42.1147 6.90383 19.4531 10.4125
lowerback 11.5608 0.468665 -14.8407
upperback -0.637188 -1.50715 -1.24859
thorax -6.90855 -0.209358 7.26986
lowerneck 2.50037 -10.2485 -9.93535
upperneck 3.2064 -14.1592 9.8334
head 1.95782 -7.1184 4.21287
rclavicle -3.92289e-014 6.75868e-015
rhumerus -26.145 16.2496 -64.8841
rradius 56.2801
rwrist 7.314
rhand -4.93421 -45.7636
rfingers 7.12502
rthumb 20.8566 -74.6625
lclavicle -3.92289e-014 6.75868e-015
lhumerus -23.1904 -12.1905 84.4102
lradius 36.4679
lwrist -15.3205
lhand -21.5886 23.2447
lfingers 7.12502
lthumb 4.80601 53.1702
rfemur -62.3549 -23.4418 6.00153
rtibia 72.8421
rfoot -9.99995 9.19375
rtoes 0.185652
lfemur 17.3251 3.23891 -14.595
ltibia 25.7944
lfoot -27.0756 29.2363
ltoes -22.863
1214
root -4.03433 13.7141 42.1208 6.93975 19.5074 10.3861
lowerback 11.5742 0.469135 -14.816
upperback -0.694252 -1.51062 -1.23654
thorax -6.97875 -0.203697 7.27072
lowerneck 2.48813 -10.2531 -9.98906
upperneck 3.27502 -14.1695 9.82725
head 1.98448 -7.12348 4.21554
rclavicle 2.00586e-014 1.49089e-016
rhumerus -26.3132 16.4331 -64.9702
rradius 56.1377
rwrist 7.45228
rhand -4.60278 -45.7593
rfingers 7.12502
rthumb 21.175 -74.6229
lclavicle 2.00586e-014 1.49089e-016
lhumerus -23.3136 -12.2197 84.5244
lradius 36.6461
lwrist -15.3837
lhand -21.4881 23.574
lfingers 7.12502
lthumb 4.90305 53.4973
rfemur -62.3611 -23.4493 6.00918
rtibia 72.8964
rfoot -10.1247 9.07225
rtoes 0.194491
lfemur 17.3618 3.23517 -14.5457
ltibia 25.6399
lfoot -27.0466 29.1637
ltoes -22.9474
